<?xml version="1.0" standalone="no"?><!DOCTYPE svg PUBLIC "-//W3C//DTD SVG 1.1//EN" "http://www.w3.org/Graphics/SVG/1.1/DTD/svg11.dtd"><svg class="icon" width="32px" height="32.00px" viewBox="0 0 1024 1024" version="1.1" xmlns="http://www.w3.org/2000/svg"><path d="M730.749288 395.97672c22.786384 4.557277 71.397337-5.063641 145.832858-29.875482 46.585496-1.519092 69.371881 18.735471 69.371881 60.257327 0 62.282783-98.234634 63.801876-139.75649 76.460978-10.127282 1.519092-43.040948 9.114554-98.740998 22.28002-15.697287 6.582733-32.407302 1.519092-49.117316-14.178194-25.318205-23.799112-51.649137-58.738235-58.231871-56.206415-2.53182 7.089097-20.254564 56.206414-52.661866 147.351951 91.651901 18.229107 145.326494 37.977307 160.517417 60.257327 7.595461 26.837297 30.88821 121.527382 69.878245 284.576619 9.114554 35.951851-4.050913 59.750963-38.483671 70.384609-51.649137 16.203651-78.486434 3.544549-90.132808-43.040948-7.595461-30.88821-25.824569-98.740998-54.687322-203.052-31.394574-20.254564-72.410065-28.862753-123.552838-25.824569-2.025456 1.012728-22.28002 23.292748-71.397337 137.224669-7.089097 11.14001-26.837297 79.499162-114.944649 40.002763-58.738235-26.330933-116.463741-55.193686-174.189248-85.575531-55.193686-29.875481-68.865516-65.827332-41.521855-107.855552 41.521856-63.295511 140.769217 16.203651 166.087422 25.824569 25.318205 9.620918 48.104589 31.394574 60.257327-5.063641 8.101825-24.305476 41.521856-130.135572 100.26009-317.99665 3.544549-22.28002-2.53182-30.88821-17.722743-24.81184-15.190923 6.076369-32.407302 29.875481-51.649138 71.903701L253.754313 586.369618c-26.837297 30.88821-55.193686 32.913666-84.056439 6.076369-28.862753-26.837297-30.88821-54.180958-5.570005-82.030983 70.384609-119.501926 116.970105-187.354714 138.743761-202.039272 33.42003-22.28002 268.372969-138.237397 427.877658 87.600988z m-139.75649-384.83671c61.776419 0 111.906464 50.130045 111.906465 111.906464 0 61.776419-50.130045 111.906464-111.906465 111.906465s-111.906464-50.130045-111.906464-111.906465c0.506364-61.776419 50.130045-111.906464 111.906464-111.906464z" fill="#e0620d" /></svg>